<svg width="25" height="25" viewBox="0 0 25 25" fill="none" xmlns="http://www.w3.org/2000/svg">
<g clip-path="url(#clip0)">
<path d="M8.22958 18.3746C6.58501 18.3746 5.25195 19.7077 5.25195 21.3523C5.25195 22.9966 6.58501 24.3297 8.22958 24.3297C9.87394 24.3297 11.207 22.9966 11.207 21.3523C11.2053 19.7085 9.8733 18.3763 8.22958 18.3746V18.3746ZM8.22958 23.235C7.18965 23.235 6.34662 22.392 6.34662 21.3523C6.34662 20.3123 7.18965 19.4693 8.22958 19.4693C9.2693 19.4693 10.1123 20.3123 10.1123 21.3523C10.1123 22.392 9.2693 23.235 8.22958 23.235V23.235Z" fill="#8EC283"/>
<path d="M24.4579 5.8792H5.1314L4.73736 3.6734C4.49448 2.31554 3.43017 1.25336 2.07189 1.01326L0.64326 0.761619C0.345433 0.708596 0.06129 0.907218 0.00826697 1.20483C-0.0445422 1.50266 0.153866 1.7868 0.451693 1.83983L1.88567 2.09147C2.79048 2.25182 3.4988 2.96015 3.65916 3.86496L5.59663 14.7952C5.8254 16.103 6.96176 17.057 8.28947 17.0557H19.7835C20.991 17.0594 22.0575 16.2689 22.4053 15.1127L24.9778 6.58517C25.0255 6.41884 24.9954 6.23967 24.8957 6.09813C24.7916 5.96109 24.6297 5.88027 24.4579 5.8792V5.8792ZM21.3599 14.7896C21.1533 15.4841 20.5134 15.9591 19.789 15.9555H8.29503C7.49776 15.9576 6.81531 15.384 6.6804 14.5981L5.32853 6.96831H23.7243L21.3599 14.7896Z" fill="#8EC283"/>
<path d="M19.7235 18.3746C18.0789 18.3746 16.7458 19.7077 16.7458 21.3523C16.7458 22.9966 18.0789 24.3297 19.7235 24.3297C21.3678 24.3297 22.7009 22.9966 22.7009 21.3523C22.6992 19.7085 21.3672 18.3763 19.7235 18.3746V18.3746ZM19.7235 23.235C18.6835 23.235 17.8405 22.392 17.8405 21.3523C17.8405 20.3123 18.6835 19.4693 19.7235 19.4693C20.7632 19.4693 21.6062 20.3123 21.6062 21.3523C21.6062 22.392 20.7632 23.235 19.7235 23.235V23.235Z" fill="#8EC283"/>
</g>
<defs>
<clipPath id="clip0">
<rect width="25" height="25" fill="white"/>
</clipPath>
</defs>
</svg>
