<svg height="464pt" viewBox="0 -36 464 464" width="464pt" xmlns="http://www.w3.org/2000/svg"><path d="m232 0c-127.921875 0-232 78.953125-232 176 0 59.070312 39.671875 114.65625 104.222656 146.992188-16.566406 19.542968-34.453125 37.925781-53.535156 55.023437l-15.726562 13.984375h21.039062c51.0625 0 101.503906-26.664062 128.59375-43.769531 15.675781 2.519531 31.527344 3.78125 47.40625 3.769531 127.921875 0 232-78.953125 232-176s-104.078125-176-232-176zm0 336c-16.003906.011719-31.984375-1.339844-47.761719-4.039062l-3.070312-.535157-2.617188 1.6875c-30.375 20.28125-64.503906 34.273438-100.375 41.152344 16.28125-15.289063 31.292969-31.878906 44.878907-49.601563l5.714843-7.9375-8.921875-4c-65.023437-29.375-103.847656-80.480468-103.847656-136.726562 0-88.222656 96.894531-160 216-160s216 71.777344 216 160-96.894531 160-216 160zm0 0"/><path d="m240 88h-16v16h-40v80h80v48h-64v-8h-16v24h40v16h16v-16h40v-80h-80v-48h64v8h16v-24h-40zm0 0"/><path d="m144 168h16v16h-16zm0 0"/><path d="m304 168h16v16h-16zm0 0"/></svg>