<?xml version="1.0" encoding="iso-8859-1"?>
<!-- Generator: Adobe Illustrator 19.0.0, SVG Export Plug-In . SVG Version: 6.00 Build 0)  -->
<svg version="1.1" id="Capa_1" xmlns="http://www.w3.org/2000/svg" xmlns:xlink="http://www.w3.org/1999/xlink" x="0px" y="0px"
	 viewBox="0 0 512 512" style="enable-background:new 0 0 512 512;" xml:space="preserve">
<g>
	<g>
		<path d="M256,0C114.844,0,0,114.844,0,256s114.844,256,256,256s256-114.844,256-256S397.156,0,256,0z M359.542,359.542
			c-2.083,2.083-4.813,3.125-7.542,3.125c-2.729,0-5.458-1.042-7.542-3.125l-83.26-83.26c-1.707,0.441-3.355,1.052-5.198,1.052
			c-11.76,0-21.333-9.573-21.333-21.333c0-7.792,4.409-14.329,10.667-18.053V74.667C245.333,68.771,250.104,64,256,64
			s10.667,4.771,10.667,10.667v163.28c6.258,3.724,10.667,10.262,10.667,18.053c0,1.842-0.611,3.491-1.052,5.198l83.26,83.26
			C363.708,348.625,363.708,355.375,359.542,359.542z"/>
	</g>
</g>
<g>
</g>
<g>
</g>
<g>
</g>
<g>
</g>
<g>
</g>
<g>
</g>
<g>
</g>
<g>
</g>
<g>
</g>
<g>
</g>
<g>
</g>
<g>
</g>
<g>
</g>
<g>
</g>
<g>
</g>
</svg>
