<svg id="icons" enable-background="new 0 0 64 64" height="512" viewBox="0 0 64 64" width="512" xmlns="http://www.w3.org/2000/svg"><path d="m57 42.504h-56c-.553 0-1 .447-1 1s.447 1 1 1h56c1.654 0 3-1.346 3-3s-1.346-3-3-3h-56c-.553 0-1 .447-1 1s.447 1 1 1h56c.552 0 1 .448 1 1s-.448 1-1 1z"/><path d="m58.009 34.585v-8.079c0-.553-.447-1-1-1h-6.982c-.007 0-.013-.004-.02-.004s-.013.004-.02.004h-2.961c-.007 0-.013-.004-.02-.004s-.013.004-.02.004h-6.982c-.553 0-1 .447-1 1v7.998h-2v-18.008c0-.553-.447-1-1-1h-17.003c-.553 0-1 .447-1 1v18.008h-2.001v-9c0-.553-.447-1-1-1h-13c-.553 0-1 .447-1 1v9c-.553 0-1 .447-1 1v1c0 .553.447 1 1 1s1-.447 1-1h5c0 .553.447 1 1 1s1-.447 1-1h5c0 .553.447 1 1 1s1-.447 1-1h3.001 1.999c0 .553.447 1 1 1s1-.447 1-1h5c0 .553.447 1 1 1s1-.447 1-1h5c0 .553.447 1 1 1s1-.447 1-1h3.005 1.995c0 .553.447 1 1 1s1-.447 1-1h5c0 .553.447 1 1 1s1-.447 1-1h5c0 .553.447 1 1 1 .518 0 .928-.397.98-.901 1.971.395 3.526 1.95 3.921 3.921-.504.052-.901.462-.901.98s.397.928.901.98c-.395 1.971-1.95 3.526-3.921 3.921-.053-.504-.463-.901-.98-.901-.553 0-1 .447-1 1h-5c0-.553-.447-1-1-1s-1 .447-1 1h-5c0-.553-.447-1-1-1s-1 .447-1 1h-5c0-.553-.447-1-1-1s-1 .447-1 1h-5c0-.553-.447-1-1-1s-1 .447-1 1h-5c0-.553-.447-1-1-1s-1 .447-1 1h-5c0-.553-.447-1-1-1s-1 .447-1 1h-5c0-.553-.447-1-1-1s-1 .447-1 1h-5c0-.553-.447-1-1-1s-1 .447-1 1v1c0 .553.447 1 1 1h56c3.859 0 7-3.141 7-7 0-3.516-2.609-6.427-5.991-6.919zm-50.008-8.081h1v1h-1zm5.999 8h-11v-8h3.001v2c0 .553.447 1 1 1h3c.553 0 1-.447 1-1v-2h2.999zm13.003-17.008h1v1.006h-1zm8.002 17.008h-15.004v-17.008h5.002v2.006c0 .553.447 1 1 1h3c.553 0 1-.447 1-1v-2.006h5.002zm13.002-6.998h1v.996h-1zm8.002 6.998h-15.004v-6.998h5.002v1.996c0 .553.447 1 1 1h3c.553 0 1-.447 1-1v-1.996h5.002z"/></svg>