<?xml version="1.0" encoding="iso-8859-1"?>
<!-- Generator: Adobe Illustrator 19.0.0, SVG Export Plug-In . SVG Version: 6.00 Build 0)  -->
<svg version="1.1" id="Capa_1" xmlns="http://www.w3.org/2000/svg" xmlns:xlink="http://www.w3.org/1999/xlink" x="0px" y="0px"
	 viewBox="0 0 512 512" style="enable-background:new 0 0 512 512;" xml:space="preserve">
<path style="fill:#1BC56E;" d="M434.069,105.253H77.931l50.799,396.733c0.733,5.725,5.606,10.013,11.377,10.013h231.786
	c5.772,0,10.644-4.289,11.377-10.013L434.069,105.253z"/>
<path style="opacity:0.15;enable-background:new    ;" d="M77.931,105.253l42.004,328.051h249.834l-8.794,68.683
	c-0.733,5.725-5.606,10.013-11.377,10.013h22.295c5.772,0,10.644-4.289,11.377-10.013l50.799-396.733L77.931,105.253L77.931,105.253
	z"/>
<path style="fill:#E3E3E3;" d="M482.873,54.326H29.127c-8.083,0-14.635-6.552-14.635-14.635V14.635C14.492,6.552,21.045,0,29.127,0
	h453.745c8.083,0,14.635,6.552,14.635,14.635v25.056C497.508,47.774,490.956,54.326,482.873,54.326z"/>
<path style="opacity:0.15;enable-background:new    ;" d="M482.873,0h-22.026c8.083,0,14.635,6.552,14.635,14.635v25.056
	c0,8.083-6.553,14.635-14.635,14.635h22.026c8.083,0,14.635-6.552,14.635-14.635V14.635C497.508,6.552,490.956,0,482.873,0z"/>
<path style="fill:#1BC56E;" d="M55.636,54.326l42.925,335.24c0.733,5.725,5.606,10.013,11.377,10.013h292.124
	c5.772,0,10.644-4.289,11.377-10.013l42.925-335.24L55.636,54.326L55.636,54.326z"/>
<path style="opacity:0.15;enable-background:new    ;" d="M55.636,54.326l3.34,26.084h365.508l-39.585,309.156
	c-0.733,5.725-5.606,10.013-11.377,10.013h28.541c5.772,0,10.644-4.289,11.377-10.013l42.925-335.24L55.636,54.326L55.636,54.326z"
	/>
<path style="opacity:0.2;enable-background:new    ;" d="M84.121,276.794h343.758l1.921-15H82.201L84.121,276.794z M71.358,177.111
	l1.921,15h365.444l1.921-15H71.358z M78.7,234.453h354.6l1.921-15H76.779L78.7,234.453z"/>
<g>
</g>
<g>
</g>
<g>
</g>
<g>
</g>
<g>
</g>
<g>
</g>
<g>
</g>
<g>
</g>
<g>
</g>
<g>
</g>
<g>
</g>
<g>
</g>
<g>
</g>
<g>
</g>
<g>
</g>
</svg>
